<?xml version="1.0" encoding="utf-8"?>
<!-- Generator: Adobe Illustrator 24.1.0, SVG Export Plug-In . SVG Version: 6.00 Build 0)  -->
<svg version="1.1" id="Layer_1" xmlns="http://www.w3.org/2000/svg" xmlns:xlink="http://www.w3.org/1999/xlink" x="0px" y="0px"
	 viewBox="0 0 600 600" style="enable-background:new 0 0 600 600;" xml:space="preserve">
<style type="text/css">
	.st0{fill:#DAA0C8;}
	.st1{fill:#FEEA02;}
	.st2{fill:#FFFFFF;}
</style>
<path class="st0" d="M505.22,132.13C448.59,97.97,355.1,88.08,355.1,88.08c-86.3-8.09-146.53,6.29-146.53,6.29
	c-88.1,8.09-142.03,61.13-142.03,61.13c-12.66,17.28-16.81,33.32-16.14,47.51v87.79c0,0,18.49,56.56,130.53,82.67
	c0,0,118.56,26.11,221.89,4.35c0,0,116.39-21.8,142.49-85.41c0,0,3.71-4.56,3.71-9.76v-76.83
	C555.96,161.75,505.22,132.13,505.22,132.13z"/>
<path class="st1" d="M83.57,224.84c0,0,67.54-45.53,166.19-50.08c0,0,109.48,5,160.88,7.59c0,0,81.54,29.58,103.96,42.5
	c0,0,34.91-37.18-10.62-74.37c0,0-42.42-37.12-100.77-44.75c-0.1-0.01-0.2-0.03-0.3-0.07c-3.3-1.03-63.9-19.33-166.81-6.78
	c0,0-83.09,8.35-114.97,33.39C121.14,132.26,43.73,166.41,83.57,224.84z"/>
<path class="st2" d="M83.57,224.84c0,0,66.06-51.24,202.7-52.14c4.75-0.38,128.74-13.94,228.33,52.14c0,0-23.97,36.22-102.03,55.73
	c0,0-122.26,22.47-175.29,8.09C237.28,288.67,122.68,279.68,83.57,224.84z"/>
<path class="st0" d="M274.19,447.07c0,0-11.28-15.72-30.25-11.45c0,0-16.41,6.67-16.58,24.95c0,0,2.91,11.82,7.92,15.41
	c0,0,4.44,3.88,6.71,4.73c0,0,0.28,2.17-1.8,3.03c0,0-7.47,2.84-11.54,10.87c0,0-8.89,20.8,7.66,29.31c0,0,15.93,13.78,35.6-4.1
	c0,0,1.35-1.8,4.66-1.5l46.72,0.45c0,0,2.85-0.9,6.61,2.7c0,0,6.61,10.97,21.63,8.56c0,0,16.07-1.65,20.28-18.78
	c0,0,1.05-16.67-6.46-20.73c0,0-2.71-3.94-7.14-5.27c0,0-2.29-2.59,1.11-4.58c0,0,13.33-4.69,12.54-22.39
	c0,0-1.06-15.43-15.12-20.33c0,0-9.93-4.9-23.35,3.48l-6.64,5.74c0,0-11.81,1.06-12.29-0.87c0,0-0.77-1.27,0.18-4.62
	c0,0,1.5-8.48-8.76-14.6c0,0-9.39-3.34-15.68,2.94c0,0-6.29,4.69-3.26,15.04c0,0-0.4,2.23-3.02,1.91L274.19,447.07z"/>
<path class="st1" d="M293.32,362.79c0,0-1.79-11.39,2.43-11.39h6.8c0,0,3.69-0.13,3.18,9.72l0.05,49.7v27.15
	c0,0-2.42,4.66-6.08,3.39c0,0-5.14,0.42-5.35-3.6L293.32,362.79z"/>
<path class="st1" d="M269.81,465.65l-0.28,32.38c0,0,21.7,3.71,22.01-14.95C291.54,483.09,293.39,464.08,269.81,465.65z
	 M287.87,482.81c-0.21,12.26-14.47,9.83-14.47,9.83l-0.04-21.51C288.86,470.09,287.87,482.81,287.87,482.81z"/>
<path class="st1" d="M302.73,466.2c0,0-9.5-0.21-9.06,16.9c0,0,0.92,14.34,9.06,14.92s9.68-11.74,9.68-13.69
	C312.41,484.32,313.32,465.46,302.73,466.2z M309.46,483.66c0,1.43-0.64,10.43-6.59,10c-5.94-0.43-6.13-10.9-6.13-10.9
	c-0.32-12.5,6.13-12.53,6.13-12.53C310.61,469.7,309.46,483.66,309.46,483.66z"/>
<path class="st1" d="M259.76,465.69h-5.6l-7.59,32.35h5.37l1.57-12.94h6.01l2.01,12.94h5.37L259.76,465.69z M253.95,481.86
	l2.76-12.13l2.55,12.13H253.95z"/>
<path class="st1" d="M314.31,466.84v31.5h4.23v-14.83c0,0,12.33,1.34,12.62-6.83C331.16,476.68,333.31,463.82,314.31,466.84z
	 M327.61,476.24c-0.06,4.77-9.34,4.13-9.34,4.13v-10.36C328.57,467.66,327.61,476.24,327.61,476.24z"/>
<polygon class="st1" points="331.96,466.38 331.96,470.93 341.39,470.93 341.26,498.34 346.16,498.34 346.16,470.88 355.81,470.88 
	355.81,466.42 "/>
</svg>
